<svg width="598" height="326" viewBox="0 0 598 326" fill="none" xmlns="http://www.w3.org/2000/svg">
  <rect width="598" height="326" rx="10" fill="#F4F5FA"/>
  <rect x="52" y="54" width="494" height="218" rx="12" fill="url(#grad)" />
  <rect x="78" y="88" width="180" height="15" rx="7.5" fill="#FFFFFF" opacity="0.75"/>
  <rect x="78" y="116" width="140" height="12" rx="6" fill="#FFFFFF" opacity="0.6"/>
  <rect x="78" y="142" width="320" height="10" rx="5" fill="#FFFFFF" opacity="0.45"/>
  <rect x="78" y="160" width="280" height="10" rx="5" fill="#FFFFFF" opacity="0.45"/>
  <rect x="78" y="178" width="210" height="10" rx="5" fill="#FFFFFF" opacity="0.45"/>
  <g opacity="0.9">
    <path d="M412 210c0 5.523-4.477 10-10 10H196c-5.523 0-10-4.477-10-10v-94c0-5.523 4.477-10 10-10h206c5.523 0 10 4.477 10 10v94Z" fill="#0BADE8" fill-opacity="0.12"/>
    <path d="M310.667 132.667h-77.334a6 6 0 0 0-6 6v77.333a6 6 0 0 0 6 6h131.334a6 6 0 0 0 6-6v-42m-60-41.333h-44m44 0 16 21.333m-16-21.333v21.333m-44-21.333-24 21.333m24-21.333v21.333m98.667 8L330.667 182m0 0-20 18m20-18 14.666 12m-14.666-12-14.667 12m-49.333-22.667 16 14.667m-16-14.667-24 22.667" stroke="#00AAE8" stroke-width="6" stroke-linecap="round" stroke-linejoin="round"/>
  </g>
  <defs>
    <linearGradient id="grad" x1="52" y1="54" x2="546" y2="272" gradientUnits="userSpaceOnUse">
      <stop stop-color="#F7FBFF"/>
      <stop offset="1" stop-color="#E6F6FF"/>
    </linearGradient>
  </defs>
</svg>
