<svg preserveAspectRatio="none" width="100%" height="100%" overflow="visible" style="display: block;" viewBox="0 0 387 261" fill="none" xmlns="http://www.w3.org/2000/svg">
<g id="results-research-decor 1">
<path id="Vector" d="M189.662 218.05C188.74 218.658 187.499 218.403 186.891 217.481C186.283 216.559 186.538 215.319 187.46 214.711L189.662 218.05ZM105.093 67.6719C99.2222 67.1832 94.8592 62.0279 95.3478 56.1572C95.8364 50.2865 100.992 45.9234 106.862 46.412C112.733 46.9006 117.096 52.0559 116.608 57.9267C116.119 63.7974 110.964 68.1605 105.093 67.6719ZM187.46 214.711C212.448 198.234 251.263 170.343 278.612 142.755C292.315 128.933 302.958 115.363 307.65 103.475C309.987 97.5535 310.789 92.1949 309.891 87.4949C309.003 82.848 306.415 78.639 301.568 75.0239L303.959 71.8175C309.514 75.9603 312.723 81.006 313.82 86.7442C314.906 92.4292 313.88 98.5859 311.371 104.944C306.37 117.614 295.246 131.657 281.453 145.571C253.809 173.456 214.719 201.528 189.662 218.05L187.46 214.711ZM301.568 75.0239C295.572 70.5519 289.134 69.4811 282.214 70.9681C275.199 72.4756 267.651 76.6266 259.683 82.7103C243.734 94.8864 226.745 114.283 209.728 133.64C192.812 152.883 175.849 172.112 160.148 183.51C152.293 189.212 144.547 193.112 137.111 193.952C129.539 194.806 122.478 192.463 116.225 186.11L119.075 183.304C124.504 188.82 130.363 190.688 136.662 189.977C143.096 189.251 150.172 185.809 157.798 180.273C173.059 169.194 189.703 150.361 206.723 130.999C223.643 111.753 240.92 92.0019 257.255 79.5309C265.429 73.291 273.527 68.7434 281.373 67.0574C289.314 65.3511 296.953 66.5921 303.959 71.8175L301.568 75.0239ZM116.225 186.11C110.068 179.855 107.423 173.268 107.702 166.471C107.978 159.762 111.091 153.153 115.824 146.751C125.259 133.989 141.735 121.275 157.954 109.21C174.335 97.024 190.432 85.5104 199.717 74.9628C204.366 69.681 207.028 64.9401 207.4 60.7387C207.753 56.7538 206.072 52.8096 200.862 48.902L203.262 45.7021C209.262 50.2023 211.89 55.3746 211.384 61.0914C210.897 66.5918 207.532 72.138 202.719 77.6057C193.079 88.5571 176.509 100.392 160.342 112.419C144.012 124.567 128.057 136.932 119.04 149.129C114.547 155.207 111.928 161.047 111.699 166.635C111.473 172.135 113.551 177.691 119.075 183.304L116.225 186.11ZM200.862 48.902C195.587 44.9454 190.353 43.3618 185.16 43.4775C179.927 43.5942 174.576 45.4413 169.126 48.6197C158.172 55.0072 147.269 66.4937 136.777 78.7095C126.396 90.7948 116.373 103.656 107.443 112.233C102.973 116.526 98.5905 119.937 94.3836 121.645C90.0716 123.395 85.774 123.404 81.9124 120.611L84.2567 117.37C86.7286 119.158 89.4979 119.311 92.8792 117.939C96.3656 116.523 100.303 113.544 104.672 109.348C113.419 100.947 123.15 88.4344 133.742 76.1031C144.222 63.9022 155.511 51.9286 167.111 45.1643C172.938 41.7666 178.954 39.6149 185.071 39.4785C191.229 39.3413 197.328 41.2507 203.262 45.7021L200.862 48.902ZM81.9124 120.611C78.4539 118.109 76.5567 115.25 76.4288 112.009C76.3051 108.877 77.8686 105.933 80.0172 103.281C82.1897 100.599 85.1889 97.9367 88.4377 95.3273C91.6845 92.7194 95.323 90.0546 98.7451 87.447C102.203 84.812 105.478 82.2086 108.157 79.6223C110.857 77.017 112.814 74.5589 113.787 72.2482C114.721 70.0325 114.741 68.0006 113.626 65.9518C112.446 63.7831 109.866 61.3606 105.043 58.8099L106.913 55.2739C112.041 57.9858 115.416 60.8734 117.14 64.0398C118.928 67.3262 118.799 70.6545 117.473 73.8015C116.187 76.8535 113.774 79.7606 110.935 82.5005C108.076 85.2594 104.644 87.9812 101.169 90.6287C97.6588 93.3037 94.1385 95.8789 90.9426 98.4459C87.7486 101.011 85.0212 103.459 83.1253 105.799C81.2056 108.169 80.3589 110.16 80.4257 111.852C80.4881 113.435 81.3817 115.29 84.2567 117.37L81.9124 120.611Z" fill="var(--fill-0, white)"/>
<path id="Vector_2" d="M170.471 223.828L181.495 188.924L181.695 173.801L156.342 144.955L152.793 140.92C150.644 138.426 151.236 134.391 154.107 131.921C156.987 129.447 161.061 129.457 163.211 131.955L174.636 144.955L186.195 158.103C187.255 157.632 188.449 157.399 189.686 157.484L191.382 157.598L191.492 157.246C186.362 154.648 182.436 150.223 180.425 144.955C179.016 141.281 178.538 137.199 179.231 133.04C180.525 125.231 185.631 119.002 192.342 115.933C190.866 114.881 188.889 114.562 186.992 116.832C182.054 122.747 177.683 118.731 177.683 118.731C177.683 118.731 179.068 119.259 179.293 116.423C179.474 114.067 176.89 110.518 179.919 105.626C182.378 101.657 190.059 98.5594 194.897 103.684C197.491 106.43 198.002 110.803 197.935 114.196C200.429 113.758 203.036 113.725 205.678 114.158C211.481 115.119 216.41 118.174 219.83 122.414C222.166 119.83 225.906 116.589 230.019 116.451C237.069 116.218 240.336 123.818 239.266 128.367C237.957 133.963 233.62 134.662 232.082 136.461C230.233 138.636 231.595 139.231 231.595 139.231C231.595 139.231 225.653 139.002 226.331 131.341C226.618 128.105 224.631 127.015 222.653 126.882C224.626 130.984 225.404 135.709 224.602 140.544C224.344 142.081 223.943 143.556 223.403 144.955C220.695 152.079 214.61 157.313 207.364 159.083C208.553 159.583 209.58 160.377 210.349 161.377L241.253 144.955L244.028 143.48C246.363 142.2 249.301 142.885 251.302 144.955C251.78 145.445 252.205 146.016 252.554 146.659C254.369 149.98 253.495 153.963 250.6 155.543L210.855 176.656C210.77 176.704 210.679 176.742 210.593 176.78L210.273 179.359L232.803 216.795L225.963 217.566L234.795 231.18C236.897 234.42 235.97 238.746 232.722 240.844L231.619 241.558C228.371 243.657 224.034 242.729 221.927 239.488L208.945 219.488L196.908 220.844L196.574 250.085C196.531 253.949 193.355 257.042 189.491 257L188.172 256.985C184.303 256.938 181.203 253.773 181.246 249.914L181.562 222.576L170.471 223.828Z" fill="var(--fill-0, #67A0FF)"/>
</g>
</svg>
